<?xml version="1.0" encoding="UTF-8" standalone="no"?>
<!-- Created with Inkscape (http://www.inkscape.org/) -->

<svg
   width="290"
   height="50"
   viewBox="0 0 76.729165 13.229167"
   version="1.1"
   id="svg184"
   inkscape:version="1.1.1 (3bf5ae0d25, 2021-09-20)"
   sodipodi:docname="logo.svg"
   xmlns:inkscape="http://www.inkscape.org/namespaces/inkscape"
   xmlns:sodipodi="http://sodipodi.sourceforge.net/DTD/sodipodi-0.dtd"
   xmlns="http://www.w3.org/2000/svg"
   xmlns:svg="http://www.w3.org/2000/svg">
  <sodipodi:namedview
     id="namedview186"
     pagecolor="#ffffff"
     bordercolor="#666666"
     borderopacity="1.0"
     inkscape:pageshadow="2"
     inkscape:pageopacity="0.0"
     inkscape:pagecheckerboard="0"
     inkscape:document-units="mm"
     showgrid="false"
     units="px"
     width="290px"
     inkscape:zoom="1.7083652"
     inkscape:cx="199.89871"
     inkscape:cy="57.072105"
     inkscape:window-width="1600"
     inkscape:window-height="819"
     inkscape:window-x="0"
     inkscape:window-y="0"
     inkscape:window-maximized="1"
     inkscape:current-layer="layer1" />
  <defs
     id="defs181" />
  <g
     inkscape:label="Camada 1"
     inkscape:groupmode="layer"
     id="layer1">
    <path
       id="path394"
       style="fill:#ffffff;stroke:#ffffff;stroke-width:0.0887227"
       d="m 17.814418,6.8615625 c 0.07878,-0.0327 0.186211,-0.15376 0.23872,-0.26901 0.0745,-0.16351 0.208687,-0.23151 0.610896,-0.30956 0.656249,-0.12734 1.714924,-0.48288 2.302428,-0.77324 l 0.45616,-0.22545 0.191617,0.19162 c 0.21686,0.21686 0.259119,0.21064 1.218866,-0.17953 0.738153,-0.30008 1.004152,-0.32754 1.004631,-0.10372 1.46e-4,0.0854 0.07821,0.28299 0.1734,0.4391 0.32566,0.5341 1.113047,0.57319 2.428634,0.12056 0.81792,-0.28141 2.186721,-0.91246 2.140702,-0.98692 -0.02413,-0.0391 -0.50232,0.1444 -1.062633,0.40767 -0.560313,0.26328 -1.018752,0.46238 -1.018752,0.44245 0,-0.0199 -0.211828,0.0367 -0.470728,0.12572 -1.088149,0.37438 -1.548691,0.29939 -1.684356,-0.27427 -0.04193,-0.17731 -0.173357,-0.41361 -0.292057,-0.52513 l -0.215813,-0.20274 -0.465159,0.1821 c -0.741296,0.29022 -1.192675,0.40929 -1.300017,0.34295 -0.285332,-0.17635 0.552159,-0.57694 1.211929,-0.5797 0.28924,-0.001 0.465794,-0.0404 0.465794,-0.10341 0,-0.25106 -1.916239,0.1465 -2.126242,0.44112 -0.0413,0.0579 -0.475535,0.25776 -1.467029,0.67509 -0.486355,0.20471 -0.793782,0.3017 -1.286481,0.40586 -0.268388,0.0567 -0.557845,0.12234 -0.643239,0.14577 -0.09382,0.0257 -0.155266,-0.006 -0.155266,-0.0807 0,-0.0678 -0.179234,-0.37992 -0.398296,-0.69358 -0.219061,-0.31365 -0.399087,-0.61021 -0.400052,-0.659 -0.0011,-0.0488 0.128106,-0.19545 0.286824,-0.32589 0.158721,-0.13044 0.260173,-0.26557 0.225451,-0.30029 -0.09242,-0.0924 -0.582361,0.1323 -0.762719,0.34983 -0.226063,0.27267 -0.47148,0.39432 -1.564767,0.77563 -0.538843,0.18794 -0.909098,0.34212 -0.822786,0.34264 0.08631,5.8e-4 0.445641,-0.10133 0.798508,-0.22634 1.541335,-0.54603 1.416147,-0.5188 1.547148,-0.33641 0.06496,0.0904 0.184531,0.24328 0.265716,0.33965 0.30853,0.36622 0.554421,0.78042 0.507941,0.85562 -0.02658,0.043 -0.135808,0.0784 -0.242723,0.0787 -0.41288,10e-4 -0.871498,0.18382 -0.842259,0.33565 0.06209,0.32239 0.577689,0.39311 1.146009,0.15717 z m -0.926965,-0.0201 c -0.122831,-0.12283 -0.04886,-0.20154 0.27356,-0.29108 0.453332,-0.12589 0.643242,-0.11673 0.643242,0.031 0,0.1988 -0.761937,0.41493 -0.916802,0.26006 z m 55.044193,-0.0798 c 0.09403,-0.0851 0.170961,-0.20661 0.170961,-0.27003 0,-0.0642 0.147563,-0.1401 0.33271,-0.17119 0.489067,-0.0821 1.642878,-0.39493 1.749161,-0.47418 0.05051,-0.0377 0.273701,-0.13558 0.495969,-0.21758 0.570683,-0.21054 1.532321,-0.72233 1.570083,-0.83561 0.01746,-0.0524 -0.238194,0.0481 -0.568111,0.22332 -0.329914,0.17519 -0.940959,0.4529 -1.357865,0.61715 -0.820828,0.32338 -2.221947,0.67226 -2.221947,0.55326 0,-0.0404 -0.179666,-0.3359 -0.399254,-0.65665 -0.219588,-0.32074 -0.399254,-0.63977 -0.399254,-0.70896 0,-0.0692 0.128543,-0.22639 0.285645,-0.34934 0.157101,-0.12295 0.261625,-0.24756 0.232275,-0.27691 -0.111559,-0.11156 -0.542529,0.0781 -0.815044,0.35872 -0.308105,0.31725 -1.374156,0.8205 -2.708235,1.27848 -1.082686,0.37168 -2.343576,0.474 -2.643008,0.21449 -0.105555,-0.0915 -0.218046,-0.25616 -0.249968,-0.36596 -0.05295,-0.18209 -0.02831,-0.1998 0.280639,-0.20157 0.67369,-0.004 1.359003,-0.47784 1.359003,-0.93989 0,-0.31322 -0.511744,-0.40736 -0.958181,-0.17627 -0.465492,0.24096 -1.187217,0.76321 -1.054708,0.76321 0.111675,0 0.117771,0.0438 0.03619,0.25992 -0.221212,0.58605 0.292688,0.9822 1.274123,0.9822 0.923152,0 2.255758,-0.38874 3.931546,-1.14688 0.33641,-0.1522 0.618575,-0.26583 0.627047,-0.25252 0.0084,0.0133 0.202343,0.26624 0.43084,0.56206 0.228496,0.29582 0.415454,0.59878 0.415454,0.67324 0,0.0963 -0.147334,0.15875 -0.510159,0.21628 -0.46055,0.073 -0.510154,0.10209 -0.510154,0.29872 0,0.1587 0.06019,0.23253 0.221805,0.27208 0.296077,0.0725 0.77142,-0.0386 0.982438,-0.22959 z m -1.012007,0.0798 c -0.122838,-0.12283 -0.04886,-0.20154 0.273558,-0.29108 0.664641,-0.18458 0.913844,-0.0199 0.335557,0.22167 -0.33569,0.14026 -0.517546,0.16099 -0.609115,0.0694 z m -5.293797,-1.75762 c 0,-0.24857 0.248637,-0.4412 0.687599,-0.53272 0.264734,-0.0552 0.288351,-0.0419 0.288351,0.16269 0,0.26793 -0.406926,0.58979 -0.745662,0.58979 -0.18592,0 -0.230288,-0.0423 -0.230288,-0.21976 z m -30.347488,1.39424 c 0.719608,-1.09707 1.865585,-3.34046 2.492137,-4.87866 0.07603,-0.18664 0.134794,-0.19972 0.903898,-0.20116 0.73147,-10e-4 1.96814,-0.18285 2.092336,-0.30705 0.143608,-0.14360001 -0.16546,-0.14721001 -0.877364,-0.0102 -0.442682,0.0852 -1.550495,0.18893 -2.461807,0.23058 -0.911313,0.0416 -1.785845,0.11543 -1.943405,0.16397 -0.607697,0.18722 -1.014269,0.49065 -1.231302,0.91895 -0.21985,0.43385 -0.284133,1.07982 -0.117694,1.18268 0.135279,0.0836 0.153881,0.0444 0.213074,-0.44891 0.121513,-1.01267 0.88473,-1.55541 2.28296,-1.62344 l 0.771842,-0.0376 -0.176286,0.46395 c -0.230426,0.60643 -0.978239,2.07497 -1.761384,3.45896 -0.34448,0.60877 -0.626327,1.1777 -0.626327,1.2643 0,0.25992 0.207883,0.17647 0.439322,-0.17637 z m -27.0561641,-0.014 c 0.583401,-0.19592 2.7094261,-1.2088 3.2850951,-1.56509 0.360429,-0.22306 0.846384,-0.35051 0.914747,-0.2399 0.02572,0.0416 -0.03037,0.24794 -0.124637,0.4585 -0.2271,0.50724 -0.216218,0.68489 0.05275,0.86113 0.168029,0.1101 0.328565,0.13255 0.641215,0.0897 0.497504,-0.0682 1.461778,-0.33043 1.40902,-0.38319 -0.02048,-0.0205 -0.251143,0.0223 -0.512575,0.0951 -0.690422,0.19221 -1.166815,0.24684 -1.314603,0.15073 -0.110924,-0.0721 -0.09941,-0.15678 0.08028,-0.59031 0.264126,-0.63725 0.192154,-0.79369 -0.361463,-0.78568 -0.281538,0.004 -0.667465,0.14092 -1.408142,0.49932 -1.6776141,0.81177 -1.9642371,0.9373 -2.7060441,1.18512 -0.584142,0.19515 -0.804283,0.22747 -1.243642,0.18259 -0.775764,-0.0792 -1.604992,-0.3384 -2.3369943,-0.73036 -0.353102,-0.18908 -0.719984,-0.38319 -0.815297,-0.43136 -0.09531,-0.0482 -0.173292,-0.11522 -0.173292,-0.149 0,-0.0338 0.194784,-0.37366 0.432853,-0.75529 0.23807,-0.38162 0.6273413,-1.02771 0.8650483,-1.43576 0.642276,-1.10252 1.381476,-1.77329 1.722159,-1.56274 0.09754,0.0603 0.08776,0.20074 -0.0545,0.78299 -0.05278,0.21604 -0.03743,0.24816 0.105529,0.22084 0.10374,-0.0198 0.216148,-0.17293 0.295899,-0.40301 0.356539,-1.02867001 -0.785984,-1.12297001 -1.70924,-0.14108 -0.344186,0.36605 -0.9900363,1.3321 -1.5003223,2.24415 -0.505405,0.90333 -0.496091,0.89546 -0.9396892,0.79391 -0.4953132,-0.1134 -0.9683062,0.0243 -1.4242388,0.41453 -0.57656406,0.49352 -0.71237736,1.1862 -0.2565268,1.30835 0.61713,0.16536 1.144696,-0.0301 1.7603602,-0.6523 l 0.4437566,-0.44845 0.875395,0.48466 c 0.4814683,0.26657 1.0687313,0.54658 1.3050343,0.62225 0.605387,0.19386 1.933178,0.13451 2.692069,-0.12035 z m -6.9425587,-0.19163 c -0.091376,-0.0532 -0.1552654,-0.19629 -0.1552654,-0.34768 0,-0.31576 0.4508526,-0.69343 0.9183846,-0.7693 0.3617066,-0.0587 0.9447953,0.0308 0.9447953,0.145 0,0.0427 -0.2036339,0.30036 -0.4525195,0.57268 -0.3931417,0.43016 -0.495001,0.49477 -0.7763219,0.49243 -0.1780963,-0.001 -0.3936788,-0.0434 -0.4790731,-0.0931 z m 47.4013318,-0.0937 c 0.188206,-0.20183 0.389321,-0.48074 0.446923,-0.6198 l 0.104728,-0.25284 0.269943,0.19221 c 0.402418,0.28655 1.714966,0.2582 2.630782,-0.0568 0.772757,-0.26582 0.71642,-0.25734 0.71642,-0.10777 0,0.0654 0.101221,0.16496 0.224938,0.22133 0.191939,0.0875 0.341331,0.057 1.018402,-0.20756 0.989195,-0.38654 1.152176,-0.3951 1.152176,-0.0605 0,0.16149 0.09395,0.33958 0.266208,0.50461 0.236286,0.22638 0.32852,0.25467 0.820684,0.25169 0.650193,-0.004 1.78965,-0.3333 2.720806,-0.78646 0.348218,-0.16947 0.651439,-0.30813 0.673814,-0.30813 0.02238,0 0.236482,-0.12047 0.475785,-0.26772 0.356079,-0.21909 0.475599,-0.25231 0.658138,-0.18291 0.326223,0.12403 0.34749,0.21306 0.153177,0.64127 -0.230465,0.5079 -0.223287,0.66353 0.03851,0.83507 0.180266,0.11811 0.298204,0.12706 0.687599,0.0522 l 0.470019,-0.0904 -0.443613,0.0164 c -0.402368,0.0149 -0.446329,-0.003 -0.472821,-0.18975 -0.01606,-0.11338 0.03384,-0.36372 0.110902,-0.55631 0.19212,-0.48016 0.187143,-0.49643 -0.214781,-0.70147 -0.195188,-0.0996 -0.35489,-0.20182 -0.35489,-0.22721 0,-0.0254 0.08756,-0.16458 0.194579,-0.30933 0.233641,-0.31602 0.126828,-0.5227 -0.184136,-0.35628 -0.207301,0.11094 -0.44907,0.52849 -0.394232,0.68087 0.0428,0.11893 -1.782622,1.02742 -2.662632,1.32514 -1.636199,0.55357 -2.010058,0.49042 -2.134962,-0.36061 -0.0136,-0.0927 -0.12286,-0.24182 -0.242782,-0.33135 -0.214061,-0.15982 -0.232019,-0.15786 -0.98311,0.10724 -0.786299,0.27753 -1.045437,0.32588 -1.045437,0.19506 0,-0.25046 0.703598,-0.54609 1.299718,-0.54609 0.212307,0 0.386014,-0.0399 0.386014,-0.0887 0,-0.21072 -1.349841,-0.0128 -1.818818,0.26671 -0.356452,0.21243 -1.873964,0.68874 -2.262431,0.71013 -0.826735,0.0455 -1.223311,-0.005 -1.451734,-0.18459 -0.180594,-0.14206 -0.214633,-0.21904 -0.150138,-0.33955 0.127731,-0.23867 0.167228,-0.65682 0.07838,-0.82977 -0.114318,-0.22253 -0.573079,-0.20484 -0.697095,0.0269 -0.07726,0.14436 -0.05763,0.26448 0.09464,0.57902 0.113157,0.23375 0.170915,0.47796 0.14053,0.59417 -0.06498,0.2485 -0.755218,1.05669 -0.851601,0.99712 -0.08624,-0.0533 -0.04055,-0.64115 0.09499,-1.22227 0.0542,-0.23236 0.07378,-0.487 0.0435,-0.56588 -0.08181,-0.21319 -0.736938,-0.112 -1.408279,0.21751 -0.880639,0.43223 -2.0365,0.87583 -2.706367,1.03864 -0.808969,0.19662 -1.083284,0.0913 -1.218449,-0.46797 -0.05001,-0.20691 -0.175151,-0.4352 -0.278087,-0.5073 -0.169241,-0.11854 -0.261919,-0.10582 -0.968206,0.13292 -0.937678,0.31696 -1.147964,0.33701 -1.019643,0.0972 0.121293,-0.22664 0.72264,-0.45429 1.200028,-0.45429 0.215723,0 0.416896,-0.0399 0.447056,-0.0887 0.08174,-0.13226 -0.532969,-0.10686 -1.19602,0.0494 -0.603509,0.14224 -0.977691,0.40174 -0.977691,0.67803 0,0.21613 0.415488,0.37896 0.662019,0.25945 0.09947,-0.0482 0.320588,-0.14464 0.491379,-0.21428 0.170791,-0.0696 0.422201,-0.17215 0.558692,-0.2278 0.395957,-0.16146 0.569259,-0.12593 0.633457,0.12985 0.273802,1.09092 1.609304,1.04923 4.042495,-0.12618 0.512376,-0.24751 1.047551,-0.47805 1.189278,-0.51231 0.254,-0.0614 0.256781,-0.058 0.194122,0.23912 -0.116229,0.5511 -0.165198,1.21435 -0.106825,1.44692 0.09088,0.36209 0.440748,0.30584 0.853948,-0.13728 z m 0.425598,-1.48201 c -0.04727,-0.32206 -5.29e-4,-0.45781 0.157318,-0.45781 0.133147,0 0.157928,0.18119 0.06977,0.51015 -0.07375,0.27519 -0.182703,0.25008 -0.227089,-0.0523 z m 13.680151,1.09943 c 0.219588,-0.0692 0.319403,-0.12544 0.221806,-0.12499 -0.185092,8.7e-4 -0.865074,0.23593 -0.709782,0.24538 0.0488,0.003 0.268388,-0.0512 0.487976,-0.12039 z m 0.685755,-0.19128 c -0.02948,-0.0295 -0.106005,-0.0326 -0.170053,-0.007 -0.07078,0.0283 -0.04976,0.0494 0.0536,0.0536 0.09352,0.004 0.145923,-0.0171 0.116448,-0.0466 z m 0.866894,-0.25525 c 0.292786,-0.11604 0.487291,-0.21379 0.432229,-0.21723 -0.05505,-0.003 -0.354489,0.0916 -0.665419,0.21122 -0.31092,0.1196 -0.505428,0.21736 -0.432232,0.21723 0.0732,-1.5e-4 0.372637,-0.0952 0.665422,-0.21122 z m -51.030009,-2.19079 c 0.122058,-0.1935 0.0099,-0.42821 -0.204624,-0.42821 -0.13875,0 -0.180228,0.0579 -0.180228,0.25138 0,0.39097 0.193651,0.47995 0.384852,0.17683 z" />
    <text
       xml:space="preserve"
       style="font-style:normal;font-variant:normal;font-weight:normal;font-stretch:normal;font-size:4.17433px;line-height:1.25;font-family:Dosis;-inkscape-font-specification:'Dosis, Normal';font-variant-ligatures:normal;font-variant-caps:normal;font-variant-numeric:normal;font-variant-east-asian:normal;fill:#808080;fill-opacity:1;stroke:none;stroke-width:0.104358"
       x="3.6621678"
       y="11.410995"
       id="text4529"
       inkscape:transform-center-x="41.133631"
       inkscape:transform-center-y="1.4690591"><tspan
         sodipodi:role="line"
         id="tspan4527"
         x="3.6621678"
         y="11.410995"
         style="font-style:normal;font-variant:normal;font-weight:normal;font-stretch:normal;font-size:4.17433px;font-family:Dosis;-inkscape-font-specification:'Dosis, Normal';font-variant-ligatures:normal;font-variant-caps:normal;font-variant-numeric:normal;font-variant-east-asian:normal;fill:#808080;stroke-width:0.104358">ARQUITETURA | INTERIORES | URBANISMO</tspan></text>
  </g>
</svg>
